<svg width="673" height="52" viewBox="0 0 673 52" fill="none" xmlns="http://www.w3.org/2000/svg">
<path d="M77.598 33V18.4545H82.7827C83.9143 18.4545 84.8518 18.6605 85.5952 19.0724C86.3385 19.4844 86.8949 20.0478 87.2642 20.7628C87.6335 21.473 87.8182 22.2732 87.8182 23.1634C87.8182 24.0582 87.6312 24.8632 87.2571 25.5781C86.8878 26.2884 86.3291 26.8518 85.581 27.2685C84.8376 27.6804 83.9025 27.8864 82.7756 27.8864H79.2102V26.0256H82.5767C83.2917 26.0256 83.8717 25.9025 84.3168 25.6562C84.7618 25.4053 85.0885 25.0644 85.2969 24.6335C85.5052 24.2027 85.6094 23.7126 85.6094 23.1634C85.6094 22.6141 85.5052 22.1264 85.2969 21.7003C85.0885 21.2741 84.7595 20.9403 84.3097 20.6989C83.8646 20.4574 83.2775 20.3366 82.5483 20.3366H79.7926V33H77.598ZM93.2976 33.2415C92.6063 33.2415 91.9813 33.1136 91.4226 32.858C90.8639 32.5975 90.4212 32.2211 90.0945 31.7287C89.7725 31.2363 89.6115 30.6326 89.6115 29.9176C89.6115 29.3021 89.7299 28.7955 89.9666 28.3977C90.2034 28 90.523 27.6851 90.9254 27.4531C91.3279 27.2211 91.7777 27.0459 92.2749 26.9276C92.772 26.8092 93.2786 26.7192 93.7947 26.6577C94.4482 26.5819 94.9785 26.5204 95.3857 26.473C95.7929 26.4209 96.0888 26.3381 96.2734 26.2244C96.4581 26.1108 96.5504 25.9261 96.5504 25.6705V25.6207C96.5504 25.0005 96.3752 24.5199 96.0249 24.179C95.6792 23.8381 95.1631 23.6676 94.4766 23.6676C93.7616 23.6676 93.1982 23.8262 92.7862 24.1435C92.379 24.456 92.0973 24.804 91.9411 25.1875L89.9453 24.733C90.1821 24.0701 90.5277 23.535 90.9822 23.1278C91.4415 22.7159 91.9695 22.4176 92.5661 22.233C93.1626 22.0436 93.79 21.9489 94.4482 21.9489C94.8838 21.9489 95.3454 22.0009 95.8331 22.1051C96.3255 22.2045 96.7848 22.3892 97.2109 22.6591C97.6418 22.929 97.9946 23.3149 98.2692 23.8168C98.5438 24.3139 98.6811 24.9602 98.6811 25.7557V33H96.6072V31.5085H96.522C96.3847 31.7831 96.1787 32.053 95.9041 32.3182C95.6295 32.5833 95.2768 32.8035 94.8459 32.9787C94.415 33.1539 93.8989 33.2415 93.2976 33.2415ZM93.7592 31.5369C94.3464 31.5369 94.8482 31.4209 95.2649 31.1889C95.6863 30.9569 96.0059 30.6539 96.2237 30.2798C96.4463 29.901 96.5575 29.4962 96.5575 29.0653V27.6591C96.4818 27.7348 96.335 27.8059 96.1172 27.8722C95.9041 27.9337 95.6603 27.9882 95.3857 28.0355C95.111 28.0781 94.8435 28.1184 94.5831 28.1562C94.3227 28.1894 94.1049 28.2178 93.9297 28.2415C93.5178 28.2936 93.1413 28.3812 92.8004 28.5043C92.4643 28.6274 92.1944 28.8049 91.9908 29.0369C91.7919 29.2642 91.6925 29.5672 91.6925 29.946C91.6925 30.4716 91.8866 30.8693 92.2749 31.1392C92.6631 31.4044 93.1579 31.5369 93.7592 31.5369ZM109.926 18.0284L110.806 19.3707C110.48 19.669 110.108 19.8821 109.691 20.0099C109.279 20.133 108.804 20.2112 108.264 20.2443C107.724 20.2727 107.106 20.2988 106.41 20.3224C105.624 20.3461 104.978 20.5166 104.471 20.8338C103.965 21.1463 103.574 21.6103 103.299 22.2259C103.029 22.8366 102.854 23.6037 102.774 24.527H102.909C103.264 23.8499 103.756 23.3433 104.386 23.0071C105.02 22.6709 105.733 22.5028 106.524 22.5028C107.404 22.5028 108.188 22.7041 108.875 23.1065C109.561 23.509 110.101 24.0985 110.494 24.875C110.892 25.6468 111.091 26.5914 111.091 27.7088C111.091 28.8404 110.882 29.8182 110.466 30.642C110.054 31.4659 109.471 32.1027 108.718 32.5526C107.97 32.9976 107.087 33.2202 106.069 33.2202C105.051 33.2202 104.163 32.9905 103.406 32.5312C102.653 32.0672 102.068 31.3807 101.652 30.4716C101.24 29.5625 101.034 28.4403 101.034 27.1051V26.0256C101.034 23.5303 101.479 21.6529 102.369 20.3935C103.259 19.134 104.59 18.4877 106.36 18.4545C106.933 18.4403 107.445 18.438 107.895 18.4474C108.344 18.4522 108.737 18.4309 109.074 18.3835C109.414 18.3314 109.699 18.2131 109.926 18.0284ZM106.076 31.4375C106.668 31.4375 107.177 31.2884 107.603 30.9901C108.034 30.687 108.366 30.2585 108.598 29.7045C108.83 29.1506 108.946 28.4972 108.946 27.7443C108.946 27.0057 108.83 26.3783 108.598 25.8622C108.366 25.3461 108.034 24.9531 107.603 24.6832C107.172 24.4086 106.656 24.2713 106.055 24.2713C105.61 24.2713 105.212 24.3494 104.862 24.5057C104.511 24.6572 104.211 24.8821 103.96 25.1804C103.714 25.4787 103.522 25.8433 103.385 26.2741C103.252 26.7003 103.181 27.1903 103.172 27.7443C103.172 28.8712 103.43 29.7685 103.946 30.4361C104.467 31.1037 105.177 31.4375 106.076 31.4375ZM118.058 33.2202C117.035 33.2202 116.143 32.9858 115.38 32.517C114.618 32.0483 114.026 31.3925 113.605 30.5497C113.183 29.7069 112.973 28.7221 112.973 27.5952C112.973 26.4635 113.183 25.474 113.605 24.6264C114.026 23.7789 114.618 23.1207 115.38 22.652C116.143 22.1832 117.035 21.9489 118.058 21.9489C119.081 21.9489 119.973 22.1832 120.735 22.652C121.498 23.1207 122.09 23.7789 122.511 24.6264C122.932 25.474 123.143 26.4635 123.143 27.5952C123.143 28.7221 122.932 29.7069 122.511 30.5497C122.09 31.3925 121.498 32.0483 120.735 32.517C119.973 32.9858 119.081 33.2202 118.058 33.2202ZM118.065 31.4375C118.728 31.4375 119.277 31.2623 119.713 30.9119C120.148 30.5616 120.47 30.0952 120.679 29.5128C120.892 28.9304 120.998 28.2888 120.998 27.5881C120.998 26.892 120.892 26.2528 120.679 25.6705C120.47 25.0833 120.148 24.6122 119.713 24.2571C119.277 23.902 118.728 23.7244 118.065 23.7244C117.397 23.7244 116.843 23.902 116.403 24.2571C115.967 24.6122 115.643 25.0833 115.43 25.6705C115.222 26.2528 115.118 26.892 115.118 27.5881C115.118 28.2888 115.222 28.9304 115.43 29.5128C115.643 30.0952 115.967 30.5616 116.403 30.9119C116.843 31.2623 117.397 31.4375 118.065 31.4375ZM124.2 23.9233V22.0909H133.404V23.9233H129.846V33H127.772V23.9233H124.2ZM138.317 33.2415C137.626 33.2415 137.001 33.1136 136.442 32.858C135.883 32.5975 135.441 32.2211 135.114 31.7287C134.792 31.2363 134.631 30.6326 134.631 29.9176C134.631 29.3021 134.749 28.7955 134.986 28.3977C135.223 28 135.542 27.6851 135.945 27.4531C136.347 27.2211 136.797 27.0459 137.294 26.9276C137.792 26.8092 138.298 26.7192 138.814 26.6577C139.468 26.5819 139.998 26.5204 140.405 26.473C140.812 26.4209 141.108 26.3381 141.293 26.2244C141.478 26.1108 141.57 25.9261 141.57 25.6705V25.6207C141.57 25.0005 141.395 24.5199 141.044 24.179C140.699 23.8381 140.183 23.6676 139.496 23.6676C138.781 23.6676 138.218 23.8262 137.806 24.1435C137.399 24.456 137.117 24.804 136.961 25.1875L134.965 24.733C135.202 24.0701 135.547 23.535 136.002 23.1278C136.461 22.7159 136.989 22.4176 137.586 22.233C138.182 22.0436 138.81 21.9489 139.468 21.9489C139.903 21.9489 140.365 22.0009 140.853 22.1051C141.345 22.2045 141.804 22.3892 142.23 22.6591C142.661 22.929 143.014 23.3149 143.289 23.8168C143.563 24.3139 143.701 24.9602 143.701 25.7557V33H141.627V31.5085H141.542C141.404 31.7831 141.198 32.053 140.924 32.3182C140.649 32.5833 140.296 32.8035 139.865 32.9787C139.435 33.1539 138.918 33.2415 138.317 33.2415ZM138.779 31.5369C139.366 31.5369 139.868 31.4209 140.284 31.1889C140.706 30.9569 141.025 30.6539 141.243 30.2798C141.466 29.901 141.577 29.4962 141.577 29.0653V27.6591C141.501 27.7348 141.355 27.8059 141.137 27.8722C140.924 27.9337 140.68 27.9882 140.405 28.0355C140.131 28.0781 139.863 28.1184 139.603 28.1562C139.342 28.1894 139.124 28.2178 138.949 28.2415C138.537 28.2936 138.161 28.3812 137.82 28.5043C137.484 28.6274 137.214 28.8049 137.01 29.0369C136.811 29.2642 136.712 29.5672 136.712 29.946C136.712 30.4716 136.906 30.8693 137.294 31.1392C137.683 31.4044 138.177 31.5369 138.779 31.5369ZM151.231 33.2202C150.156 33.2202 149.23 32.9905 148.454 32.5312C147.682 32.0672 147.085 31.4162 146.664 30.5781C146.247 29.7353 146.039 28.7481 146.039 27.6165C146.039 26.4991 146.247 25.5142 146.664 24.6619C147.085 23.8097 147.673 23.1444 148.425 22.6662C149.183 22.188 150.068 21.9489 151.082 21.9489C151.697 21.9489 152.294 22.0507 152.871 22.2543C153.449 22.4579 153.968 22.7775 154.427 23.2131C154.886 23.6487 155.248 24.2145 155.513 24.9105C155.779 25.6018 155.911 26.4422 155.911 27.4318V28.1847H147.239V26.5938H153.83C153.83 26.035 153.717 25.5402 153.489 25.1094C153.262 24.6738 152.942 24.3305 152.531 24.0795C152.123 23.8286 151.645 23.7031 151.096 23.7031C150.499 23.7031 149.978 23.8499 149.533 24.1435C149.093 24.4323 148.752 24.8111 148.511 25.2798C148.274 25.7438 148.156 26.2481 148.156 26.7926V28.0355C148.156 28.7647 148.283 29.3849 148.539 29.8963C148.799 30.4077 149.162 30.7983 149.626 31.0682C150.09 31.3333 150.632 31.4659 151.252 31.4659C151.655 31.4659 152.022 31.4091 152.353 31.2955C152.684 31.1771 152.971 31.0019 153.212 30.7699C153.454 30.5379 153.638 30.2514 153.766 29.9105L155.776 30.2727C155.615 30.8646 155.326 31.383 154.91 31.8281C154.498 32.2685 153.979 32.6117 153.354 32.858C152.734 33.0994 152.026 33.2202 151.231 33.2202ZM164.39 30.3722L167.912 22.0909H169.745L165.178 33H163.601L159.127 22.0909H160.938L164.39 30.3722ZM160.348 22.0909V33H158.267V22.0909H160.348ZM168.488 33V22.0909H170.554V33H168.488ZM187.094 18.0284L187.974 19.3707C187.648 19.669 187.276 19.8821 186.859 20.0099C186.447 20.133 185.972 20.2112 185.432 20.2443C184.892 20.2727 184.274 20.2988 183.578 20.3224C182.792 20.3461 182.146 20.5166 181.639 20.8338C181.133 21.1463 180.742 21.6103 180.467 22.2259C180.197 22.8366 180.022 23.6037 179.942 24.527H180.077C180.432 23.8499 180.924 23.3433 181.554 23.0071C182.188 22.6709 182.901 22.5028 183.692 22.5028C184.572 22.5028 185.356 22.7041 186.043 23.1065C186.729 23.509 187.269 24.0985 187.662 24.875C188.06 25.6468 188.259 26.5914 188.259 27.7088C188.259 28.8404 188.05 29.8182 187.634 30.642C187.222 31.4659 186.639 32.1027 185.886 32.5526C185.138 32.9976 184.255 33.2202 183.237 33.2202C182.219 33.2202 181.331 32.9905 180.574 32.5312C179.821 32.0672 179.236 31.3807 178.82 30.4716C178.408 29.5625 178.202 28.4403 178.202 27.1051V26.0256C178.202 23.5303 178.647 21.6529 179.537 20.3935C180.427 19.134 181.758 18.4877 183.528 18.4545C184.101 18.4403 184.613 18.438 185.062 18.4474C185.512 18.4522 185.905 18.4309 186.241 18.3835C186.582 18.3314 186.866 18.2131 187.094 18.0284ZM183.244 31.4375C183.836 31.4375 184.345 31.2884 184.771 30.9901C185.202 30.687 185.534 30.2585 185.766 29.7045C185.998 29.1506 186.114 28.4972 186.114 27.7443C186.114 27.0057 185.998 26.3783 185.766 25.8622C185.534 25.3461 185.202 24.9531 184.771 24.6832C184.34 24.4086 183.824 24.2713 183.223 24.2713C182.778 24.2713 182.38 24.3494 182.03 24.5057C181.679 24.6572 181.379 24.8821 181.128 25.1804C180.882 25.4787 180.69 25.8433 180.553 26.2741C180.42 26.7003 180.349 27.1903 180.339 27.7443C180.339 28.8712 180.598 29.7685 181.114 30.4361C181.634 31.1037 182.345 31.4375 183.244 31.4375ZM195.332 33.2202C194.258 33.2202 193.332 32.9905 192.555 32.5312C191.784 32.0672 191.187 31.4162 190.766 30.5781C190.349 29.7353 190.141 28.7481 190.141 27.6165C190.141 26.4991 190.349 25.5142 190.766 24.6619C191.187 23.8097 191.774 23.1444 192.527 22.6662C193.285 22.188 194.17 21.9489 195.183 21.9489C195.799 21.9489 196.395 22.0507 196.973 22.2543C197.551 22.4579 198.069 22.7775 198.528 23.2131C198.988 23.6487 199.35 24.2145 199.615 24.9105C199.88 25.6018 200.013 26.4422 200.013 27.4318V28.1847H191.341V26.5938H197.932C197.932 26.035 197.818 25.5402 197.591 25.1094C197.364 24.6738 197.044 24.3305 196.632 24.0795C196.225 23.8286 195.747 23.7031 195.197 23.7031C194.601 23.7031 194.08 23.8499 193.635 24.1435C193.195 24.4323 192.854 24.8111 192.612 25.2798C192.375 25.7438 192.257 26.2481 192.257 26.7926V28.0355C192.257 28.7647 192.385 29.3849 192.641 29.8963C192.901 30.4077 193.263 30.7983 193.727 31.0682C194.191 31.3333 194.733 31.4659 195.354 31.4659C195.756 31.4659 196.123 31.4091 196.455 31.2955C196.786 31.1771 197.072 31.0019 197.314 30.7699C197.555 30.5379 197.74 30.2514 197.868 29.9105L199.878 30.2727C199.717 30.8646 199.428 31.383 199.011 31.8281C198.599 32.2685 198.081 32.6117 197.456 32.858C196.836 33.0994 196.128 33.2202 195.332 33.2202ZM201.723 30.1165H203.896C203.924 30.5616 204.126 30.9048 204.5 31.1463C204.878 31.3878 205.368 31.5085 205.97 31.5085C206.581 31.5085 207.101 31.3783 207.532 31.1179C207.963 30.8527 208.179 30.4432 208.179 29.8892C208.179 29.5578 208.096 29.2689 207.93 29.0227C207.769 28.7718 207.539 28.5777 207.241 28.4403C206.948 28.303 206.6 28.2344 206.197 28.2344H204.422V26.5653H206.197C206.798 26.5653 207.248 26.428 207.547 26.1534C207.845 25.8788 207.994 25.5355 207.994 25.1236C207.994 24.6785 207.833 24.321 207.511 24.0511C207.194 23.7765 206.751 23.6392 206.183 23.6392C205.605 23.6392 205.125 23.7694 204.741 24.0298C204.358 24.2855 204.156 24.617 204.137 25.0241H201.993C202.007 24.4134 202.191 23.8783 202.547 23.419C202.906 22.955 203.389 22.5952 203.995 22.3395C204.606 22.0791 205.3 21.9489 206.076 21.9489C206.886 21.9489 207.587 22.0791 208.179 22.3395C208.77 22.5999 209.227 22.9598 209.549 23.419C209.876 23.8783 210.039 24.4062 210.039 25.0028C210.039 25.6042 209.859 26.0966 209.5 26.4801C209.145 26.8589 208.681 27.1312 208.108 27.2969V27.4105C208.529 27.4389 208.903 27.5668 209.23 27.794C209.556 28.0213 209.812 28.322 209.997 28.696C210.181 29.0701 210.274 29.4938 210.274 29.9673C210.274 30.6349 210.089 31.2126 209.72 31.7003C209.355 32.188 208.849 32.5644 208.2 32.8295C207.556 33.09 206.82 33.2202 205.991 33.2202C205.186 33.2202 204.464 33.0947 203.825 32.8438C203.19 32.5881 202.686 32.2282 202.312 31.7642C201.943 31.3002 201.746 30.7509 201.723 30.1165ZM217.76 33V22.0909H226.659V33H224.578V23.9233H219.826V33H217.76ZM234.093 33.2202C233.07 33.2202 232.178 32.9858 231.415 32.517C230.653 32.0483 230.061 31.3925 229.64 30.5497C229.219 29.7069 229.008 28.7221 229.008 27.5952C229.008 26.4635 229.219 25.474 229.64 24.6264C230.061 23.7789 230.653 23.1207 231.415 22.652C232.178 22.1832 233.07 21.9489 234.093 21.9489C235.116 21.9489 236.008 22.1832 236.771 22.652C237.533 23.1207 238.125 23.7789 238.546 24.6264C238.968 25.474 239.178 26.4635 239.178 27.5952C239.178 28.7221 238.968 29.7069 238.546 30.5497C238.125 31.3925 237.533 32.0483 236.771 32.517C236.008 32.9858 235.116 33.2202 234.093 33.2202ZM234.1 31.4375C234.763 31.4375 235.312 31.2623 235.748 30.9119C236.183 30.5616 236.505 30.0952 236.714 29.5128C236.927 28.9304 237.033 28.2888 237.033 27.5881C237.033 26.892 236.927 26.2528 236.714 25.6705C236.505 25.0833 236.183 24.6122 235.748 24.2571C235.312 23.902 234.763 23.7244 234.1 23.7244C233.433 23.7244 232.879 23.902 232.438 24.2571C232.003 24.6122 231.678 25.0833 231.465 25.6705C231.257 26.2528 231.153 26.892 231.153 27.5881C231.153 28.2888 231.257 28.9304 231.465 29.5128C231.678 30.0952 232.003 30.5616 232.438 30.9119C232.879 31.2623 233.433 31.4375 234.1 31.4375ZM246.144 33.2202C245.088 33.2202 244.179 32.9811 243.417 32.5028C242.659 32.0199 242.077 31.3546 241.669 30.5071C241.262 29.6596 241.059 28.6889 241.059 27.5952C241.059 26.4872 241.267 25.5095 241.684 24.6619C242.1 23.8097 242.687 23.1444 243.445 22.6662C244.203 22.188 245.095 21.9489 246.123 21.9489C246.951 21.9489 247.69 22.1027 248.338 22.4105C248.987 22.7135 249.51 23.1397 249.908 23.6889C250.31 24.2382 250.55 24.8797 250.625 25.6136H248.559C248.445 25.1023 248.185 24.6619 247.777 24.2926C247.375 23.9233 246.835 23.7386 246.158 23.7386C245.566 23.7386 245.048 23.8949 244.603 24.2074C244.162 24.5152 243.819 24.9555 243.573 25.5284C243.327 26.0966 243.203 26.7689 243.203 27.5455C243.203 28.3409 243.324 29.0275 243.566 29.6051C243.807 30.1828 244.148 30.6302 244.588 30.9474C245.033 31.2647 245.557 31.4233 246.158 31.4233C246.56 31.4233 246.925 31.3499 247.252 31.2031C247.583 31.0516 247.86 30.8362 248.083 30.5568C248.31 30.2775 248.469 29.9413 248.559 29.5483H250.625C250.55 30.2538 250.32 30.8835 249.936 31.4375C249.553 31.9915 249.039 32.4271 248.395 32.7443C247.756 33.0616 247.006 33.2202 246.144 33.2202ZM252.896 37.0909V22.0909H254.97V23.8594H255.148C255.271 23.6321 255.448 23.3693 255.68 23.071C255.912 22.7727 256.234 22.5123 256.646 22.2898C257.058 22.0625 257.603 21.9489 258.28 21.9489C259.161 21.9489 259.946 22.1714 260.638 22.6165C261.329 23.0616 261.871 23.7031 262.264 24.5412C262.662 25.3793 262.861 26.3878 262.861 27.5668C262.861 28.7457 262.664 29.7566 262.271 30.5994C261.878 31.4375 261.339 32.0838 260.652 32.5384C259.965 32.9882 259.182 33.2131 258.301 33.2131C257.638 33.2131 257.096 33.1018 256.675 32.8793C256.258 32.6567 255.931 32.3963 255.695 32.098C255.458 31.7997 255.276 31.5346 255.148 31.3026H255.02V37.0909H252.896ZM254.977 27.5455C254.977 28.3125 255.089 28.9848 255.311 29.5625C255.534 30.1402 255.856 30.5923 256.277 30.919C256.698 31.241 257.214 31.402 257.825 31.402C258.46 31.402 258.99 31.2339 259.416 30.8977C259.842 30.5568 260.164 30.0952 260.382 29.5128C260.605 28.9304 260.716 28.2746 260.716 27.5455C260.716 26.8258 260.607 26.1795 260.389 25.6065C260.176 25.0336 259.854 24.5814 259.423 24.25C258.997 23.9186 258.464 23.7528 257.825 23.7528C257.21 23.7528 256.689 23.9115 256.263 24.2287C255.841 24.5459 255.522 24.9886 255.304 25.5568C255.086 26.125 254.977 26.7879 254.977 27.5455ZM269.942 33.2202C268.867 33.2202 267.941 32.9905 267.165 32.5312C266.393 32.0672 265.796 31.4162 265.375 30.5781C264.958 29.7353 264.75 28.7481 264.75 27.6165C264.75 26.4991 264.958 25.5142 265.375 24.6619C265.796 23.8097 266.384 23.1444 267.136 22.6662C267.894 22.188 268.779 21.9489 269.793 21.9489C270.408 21.9489 271.005 22.0507 271.582 22.2543C272.16 22.4579 272.679 22.7775 273.138 23.2131C273.597 23.6487 273.959 24.2145 274.224 24.9105C274.49 25.6018 274.622 26.4422 274.622 27.4318V28.1847H265.95V26.5938H272.541C272.541 26.035 272.428 25.5402 272.2 25.1094C271.973 24.6738 271.653 24.3305 271.241 24.0795C270.834 23.8286 270.356 23.7031 269.807 23.7031C269.21 23.7031 268.689 23.8499 268.244 24.1435C267.804 24.4323 267.463 24.8111 267.222 25.2798C266.985 25.7438 266.866 26.2481 266.866 26.7926V28.0355C266.866 28.7647 266.994 29.3849 267.25 29.8963C267.51 30.4077 267.873 30.7983 268.337 31.0682C268.801 31.3333 269.343 31.4659 269.963 31.4659C270.366 31.4659 270.732 31.4091 271.064 31.2955C271.395 31.1771 271.682 31.0019 271.923 30.7699C272.165 30.5379 272.349 30.2514 272.477 29.9105L274.487 30.2727C274.326 30.8646 274.037 31.383 273.621 31.8281C273.209 32.2685 272.69 32.6117 272.065 32.858C271.445 33.0994 270.737 33.2202 269.942 33.2202ZM275.913 36.1463V31.1605H276.801C277.028 30.9522 277.22 30.7036 277.376 30.4148C277.537 30.1259 277.672 29.7827 277.781 29.3849C277.895 28.9872 277.989 28.5232 278.065 27.9929C278.141 27.4579 278.207 26.8471 278.264 26.1605L278.605 22.0909H286.02V31.1605H287.696V36.1463H285.622V33H278.015V36.1463H275.913ZM279.074 31.1605H283.946V23.9091H280.508L280.281 26.1605C280.172 27.3063 280.035 28.3007 279.869 29.1435C279.703 29.9815 279.438 30.6539 279.074 31.1605ZM297.165 26.6293V28.4688H291.256V26.6293H297.165ZM291.852 22.0909V33H289.771V22.0909H291.852ZM298.649 22.0909V33H296.575V22.0909H298.649ZM303.571 30.0241L308.379 22.0909H310.666V33H308.585V25.0597L303.798 33H301.49V22.0909H303.571V30.0241ZM313.521 33V22.0909H315.645V26.6648H316.668L320.268 22.0909H322.896L318.67 27.3963L322.946 33H320.311L317.023 28.6392H315.645V33H313.521ZM328.741 33.2202C327.719 33.2202 326.826 32.9858 326.064 32.517C325.302 32.0483 324.71 31.3925 324.288 30.5497C323.867 29.7069 323.656 28.7221 323.656 27.5952C323.656 26.4635 323.867 25.474 324.288 24.6264C324.71 23.7789 325.302 23.1207 326.064 22.652C326.826 22.1832 327.719 21.9489 328.741 21.9489C329.764 21.9489 330.657 22.1832 331.419 22.652C332.181 23.1207 332.773 23.7789 333.195 24.6264C333.616 25.474 333.827 26.4635 333.827 27.5952C333.827 28.7221 333.616 29.7069 333.195 30.5497C332.773 31.3925 332.181 32.0483 331.419 32.517C330.657 32.9858 329.764 33.2202 328.741 33.2202ZM328.749 31.4375C329.411 31.4375 329.961 31.2623 330.396 30.9119C330.832 30.5616 331.154 30.0952 331.362 29.5128C331.575 28.9304 331.682 28.2888 331.682 27.5881C331.682 26.892 331.575 26.2528 331.362 25.6705C331.154 25.0833 330.832 24.6122 330.396 24.2571C329.961 23.902 329.411 23.7244 328.749 23.7244C328.081 23.7244 327.527 23.902 327.087 24.2571C326.651 24.6122 326.327 25.0833 326.114 25.6705C325.905 26.2528 325.801 26.892 325.801 27.5881C325.801 28.2888 325.905 28.9304 326.114 29.5128C326.327 30.0952 326.651 30.5616 327.087 30.9119C327.527 31.2623 328.081 31.4375 328.749 31.4375ZM336.197 33V22.0909H340.721C341.952 22.0909 342.928 22.3537 343.647 22.8793C344.367 23.4001 344.727 24.108 344.727 25.0028C344.727 25.642 344.523 26.1487 344.116 26.5227C343.709 26.8968 343.169 27.1477 342.497 27.2756C342.984 27.3324 343.432 27.4792 343.839 27.7159C344.246 27.9479 344.573 28.2604 344.819 28.6534C345.07 29.0464 345.196 29.5152 345.196 30.0597C345.196 30.6373 345.047 31.1487 344.748 31.5938C344.45 32.0341 344.017 32.3797 343.449 32.6307C342.885 32.8769 342.206 33 341.41 33H336.197ZM338.193 31.2244H341.41C341.936 31.2244 342.348 31.099 342.646 30.848C342.944 30.5971 343.093 30.2562 343.093 29.8253C343.093 29.3187 342.944 28.9209 342.646 28.6321C342.348 28.3385 341.936 28.1918 341.41 28.1918H338.193V31.2244ZM338.193 26.6364H340.743C341.14 26.6364 341.481 26.5795 341.765 26.4659C342.054 26.3523 342.274 26.1913 342.426 25.983C342.582 25.7699 342.66 25.5189 342.66 25.2301C342.66 24.8087 342.487 24.4796 342.142 24.2429C341.796 24.0062 341.323 23.8878 340.721 23.8878H338.193V26.6364Z" fill="black"/>
<circle cx="26" cy="26" r="26" fill="#F50E30"/>
<path d="M39.7165 21.5002H36.3325L35.4325 19.1602C34.4965 16.7482 32.1565 15.2002 29.5645 15.2002H22.4365C19.8445 15.2002 17.5405 16.7482 16.5685 19.1602L15.6325 21.5002H12.2485C11.8885 21.5002 11.5645 21.7882 11.5645 22.1842C11.5645 22.2202 11.5645 22.2922 11.6005 22.3282L11.9245 23.6962C11.9965 23.9842 12.2845 24.2002 12.5725 24.2002H13.7605C12.9685 24.8842 12.5005 25.8562 12.5005 26.9002V29.6002C12.5005 30.4642 12.8245 31.2922 13.4005 31.9762V35.0002C13.4005 36.0082 14.1925 36.8002 15.2005 36.8002H17.0005C18.0085 36.8002 18.8005 36.0082 18.8005 35.0002V33.2002H33.2005V35.0002C33.2005 36.0082 33.9925 36.8002 35.0005 36.8002H36.8005C37.8085 36.8002 38.6005 36.0082 38.6005 35.0002V31.9402C39.1765 31.2922 39.5005 30.4642 39.5005 29.5642V26.8642C39.5005 25.8202 39.0325 24.8482 38.2405 24.1642H39.3565C39.6805 24.1642 39.9325 23.9482 40.0045 23.6602L40.3285 22.2922C40.4005 21.9322 40.1845 21.5722 39.8245 21.4642C39.8245 21.5002 39.7885 21.5002 39.7165 21.5002ZM19.9165 20.4922C20.3125 19.4482 21.3205 18.8002 22.4365 18.8002H29.5645C30.6805 18.8002 31.6885 19.4842 32.0845 20.4922L33.2005 23.3002H18.8005L19.9165 20.4922ZM17.0005 29.6002C16.0645 29.6722 15.2725 28.9522 15.2005 28.0162C15.2005 27.9442 15.2005 27.8722 15.2005 27.8002C15.1285 26.8642 15.8485 26.0722 16.7845 26.0002H17.0005C18.0805 26.0002 19.7005 27.6202 19.7005 28.7002C19.7005 29.7802 18.0805 29.6002 17.0005 29.6002ZM35.0005 29.6002C33.9205 29.6002 32.3005 29.7802 32.3005 28.7002C32.3005 27.6202 33.9205 26.0002 35.0005 26.0002C35.9365 25.9282 36.7285 26.6482 36.8005 27.5842V27.8002C36.8725 28.7362 36.1525 29.5282 35.2165 29.6002C35.1445 29.6002 35.0725 29.6002 35.0005 29.6002Z" fill="white"/>
</svg>
