<svg width="673" height="52" viewBox="0 0 673 52" fill="none" xmlns="http://www.w3.org/2000/svg">
<circle cx="26" cy="26" r="26" fill="#F50E30"/>
<path d="M78.6278 33.1989V31.267H79.5014C79.866 31.267 80.1667 31.2055 80.4034 31.0824C80.6449 30.9593 80.8414 30.7936 80.9929 30.5852C81.1491 30.3722 81.2794 30.1402 81.3835 29.8892L81.5895 29.3707L76.4759 18.4545H78.8054L82.6193 26.8636L86.0142 18.4545H88.3153L83.2869 30.4787C83.0739 30.9616 82.8277 31.4091 82.5483 31.821C82.2737 32.233 81.9067 32.5668 81.4474 32.8224C80.9882 33.0734 80.3797 33.1989 79.6222 33.1989H78.6278ZM93.0188 33.2202C91.9629 33.2202 91.0539 32.9811 90.2915 32.5028C89.534 32.0199 88.9516 31.3546 88.5444 30.5071C88.1372 29.6596 87.9336 28.6889 87.9336 27.5952C87.9336 26.4872 88.1419 25.5095 88.5586 24.6619C88.9753 23.8097 89.5624 23.1444 90.32 22.6662C91.0775 22.188 91.9701 21.9489 92.9975 21.9489C93.8261 21.9489 94.5647 22.1027 95.2134 22.4105C95.8621 22.7135 96.3853 23.1397 96.783 23.6889C97.1855 24.2382 97.4246 24.8797 97.5004 25.6136H95.4336C95.32 25.1023 95.0595 24.6619 94.6523 24.2926C94.2499 23.9233 93.7101 23.7386 93.033 23.7386C92.4412 23.7386 91.9227 23.8949 91.4776 24.2074C91.0373 24.5152 90.694 24.9555 90.4478 25.5284C90.2016 26.0966 90.0785 26.7689 90.0785 27.5455C90.0785 28.3409 90.1992 29.0275 90.4407 29.6051C90.6822 30.1828 91.0231 30.6302 91.4634 30.9474C91.9085 31.2647 92.4317 31.4233 93.033 31.4233C93.4355 31.4233 93.8001 31.3499 94.1268 31.2031C94.4582 31.0516 94.7352 30.8362 94.9577 30.5568C95.185 30.2775 95.3436 29.9413 95.4336 29.5483H97.5004C97.4246 30.2538 97.195 30.8835 96.8114 31.4375C96.4279 31.9915 95.9142 32.4271 95.2702 32.7443C94.631 33.0616 93.8806 33.2202 93.0188 33.2202ZM99.7713 33V22.0909H108.67V33H106.589V23.9233H101.838V33H99.7713ZM116.211 33.2202C115.136 33.2202 114.211 32.9905 113.434 32.5312C112.663 32.0672 112.066 31.4162 111.645 30.5781C111.228 29.7353 111.02 28.7481 111.02 27.6165C111.02 26.4991 111.228 25.5142 111.645 24.6619C112.066 23.8097 112.653 23.1444 113.406 22.6662C114.163 22.188 115.049 21.9489 116.062 21.9489C116.678 21.9489 117.274 22.0507 117.852 22.2543C118.43 22.4579 118.948 22.7775 119.407 23.2131C119.867 23.6487 120.229 24.2145 120.494 24.9105C120.759 25.6018 120.892 26.4422 120.892 27.4318V28.1847H112.22V26.5938H118.811C118.811 26.035 118.697 25.5402 118.47 25.1094C118.243 24.6738 117.923 24.3305 117.511 24.0795C117.104 23.8286 116.626 23.7031 116.076 23.7031C115.48 23.7031 114.959 23.8499 114.514 24.1435C114.074 24.4323 113.733 24.8111 113.491 25.2798C113.254 25.7438 113.136 26.2481 113.136 26.7926V28.0355C113.136 28.7647 113.264 29.3849 113.52 29.8963C113.78 30.4077 114.142 30.7983 114.606 31.0682C115.07 31.3333 115.612 31.4659 116.233 31.4659C116.635 31.4659 117.002 31.4091 117.333 31.2955C117.665 31.1771 117.951 31.0019 118.193 30.7699C118.434 30.5379 118.619 30.2514 118.747 29.9105L120.757 30.2727C120.596 30.8646 120.307 31.383 119.89 31.8281C119.478 32.2685 118.96 32.6117 118.335 32.858C117.715 33.0994 117.007 33.2202 116.211 33.2202ZM123.248 22.0909H125.329V31.1605H129.1V22.0909H131.181V31.1605H134.952V22.0909H137.033V33H123.248V22.0909ZM147.262 26.6293V28.4688H141.353V26.6293H147.262ZM141.95 22.0909V33H139.869V22.0909H141.95ZM148.747 22.0909V33H146.673V22.0909H148.747ZM153.186 25.8409H156.353C157.689 25.8409 158.716 26.1723 159.436 26.8352C160.155 27.4981 160.515 28.3527 160.515 29.3991C160.515 30.081 160.354 30.6941 160.032 31.2386C159.71 31.7831 159.239 32.214 158.619 32.5312C157.999 32.8438 157.243 33 156.353 33H151.588V22.0909H153.669V31.1676H156.353C156.964 31.1676 157.466 31.009 157.859 30.6918C158.252 30.3698 158.449 29.9602 158.449 29.4631C158.449 28.9375 158.252 28.509 157.859 28.1776C157.466 27.8414 156.964 27.6733 156.353 27.6733H153.186V25.8409ZM162.064 33V22.0909H164.187V33H162.064ZM169.118 30.0241L173.926 22.0909H176.213V33H174.132V25.0597L169.345 33H167.037V22.0909H169.118V30.0241ZM173.017 18.3977H174.764C174.764 19.1979 174.48 19.849 173.912 20.3509C173.348 20.848 172.586 21.0966 171.625 21.0966C170.669 21.0966 169.909 20.848 169.345 20.3509C168.782 19.849 168.5 19.1979 168.5 18.3977H170.24C170.24 18.7528 170.344 19.0677 170.553 19.3423C170.761 19.6122 171.118 19.7472 171.625 19.7472C172.122 19.7472 172.477 19.6122 172.69 19.3423C172.908 19.0724 173.017 18.7576 173.017 18.3977ZM188.956 33.2202C187.934 33.2202 187.041 32.9858 186.279 32.517C185.516 32.0483 184.925 31.3925 184.503 30.5497C184.082 29.7069 183.871 28.7221 183.871 27.5952C183.871 26.4635 184.082 25.474 184.503 24.6264C184.925 23.7789 185.516 23.1207 186.279 22.652C187.041 22.1832 187.934 21.9489 188.956 21.9489C189.979 21.9489 190.872 22.1832 191.634 22.652C192.396 23.1207 192.988 23.7789 193.409 24.6264C193.831 25.474 194.042 26.4635 194.042 27.5952C194.042 28.7221 193.831 29.7069 193.409 30.5497C192.988 31.3925 192.396 32.0483 191.634 32.517C190.872 32.9858 189.979 33.2202 188.956 33.2202ZM188.963 31.4375C189.626 31.4375 190.176 31.2623 190.611 30.9119C191.047 30.5616 191.369 30.0952 191.577 29.5128C191.79 28.9304 191.897 28.2888 191.897 27.5881C191.897 26.892 191.79 26.2528 191.577 25.6705C191.369 25.0833 191.047 24.6122 190.611 24.2571C190.176 23.902 189.626 23.7244 188.963 23.7244C188.296 23.7244 187.742 23.902 187.301 24.2571C186.866 24.6122 186.542 25.0833 186.328 25.6705C186.12 26.2528 186.016 26.892 186.016 27.5881C186.016 28.2888 186.12 28.9304 186.328 29.5128C186.542 30.0952 186.866 30.5616 187.301 30.9119C187.742 31.2623 188.296 31.4375 188.963 31.4375ZM196.412 33V22.0909H205.311V33H203.23V23.9233H198.479V33H196.412ZM209.748 25.8409H212.916C214.251 25.8409 215.279 26.1723 215.998 26.8352C216.718 27.4981 217.078 28.3527 217.078 29.3991C217.078 30.081 216.917 30.6941 216.595 31.2386C216.273 31.7831 215.802 32.214 215.181 32.5312C214.561 32.8438 213.806 33 212.916 33H208.15V22.0909H210.231V31.1676H212.916C213.527 31.1676 214.029 31.009 214.422 30.6918C214.815 30.3698 215.011 29.9602 215.011 29.4631C215.011 28.9375 214.815 28.509 214.422 28.1776C214.029 27.8414 213.527 27.6733 212.916 27.6733H209.748V25.8409ZM218.626 33V22.0909H220.75V33H218.626ZM222.989 23.9233V22.0909H232.193V23.9233H228.635V33H226.561V23.9233H222.989ZM245.222 18.4545V33H243.021V20.6562H242.935L239.455 22.929V20.8267L243.085 18.4545H245.222ZM254.221 33.2415C253.099 33.2367 252.14 32.9408 251.344 32.3537C250.549 31.7666 249.941 30.9119 249.519 29.7898C249.098 28.6676 248.887 27.3158 248.887 25.7344C248.887 24.1577 249.098 22.8106 249.519 21.6932C249.945 20.5758 250.556 19.7235 251.352 19.1364C252.152 18.5492 253.108 18.2557 254.221 18.2557C255.334 18.2557 256.288 18.5516 257.083 19.1435C257.879 19.7306 258.487 20.5829 258.908 21.7003C259.335 22.813 259.548 24.1577 259.548 25.7344C259.548 27.3205 259.337 28.6747 258.915 29.7969C258.494 30.9143 257.886 31.7689 257.09 32.3608C256.295 32.9479 255.338 33.2415 254.221 33.2415ZM254.221 31.3452C255.206 31.3452 255.975 30.8646 256.529 29.9034C257.088 28.9422 257.367 27.5526 257.367 25.7344C257.367 24.527 257.239 23.5066 256.984 22.6733C256.733 21.8352 256.371 21.2008 255.897 20.7699C255.428 20.3343 254.87 20.1165 254.221 20.1165C253.241 20.1165 252.471 20.5994 251.913 21.5653C251.354 22.5312 251.072 23.9209 251.067 25.7344C251.067 26.9465 251.193 27.9716 251.444 28.8097C251.7 29.643 252.062 30.2751 252.531 30.706C252.999 31.1321 253.563 31.3452 254.221 31.3452ZM266.529 33L266.522 31.1605H266.913C267.216 31.1605 267.469 31.0966 267.673 30.9688C267.881 30.8362 268.051 30.6136 268.184 30.3011C268.317 29.9886 268.418 29.5578 268.489 29.0085C268.56 28.4545 268.612 27.7585 268.646 26.9205L268.837 22.0909H276.451V33H274.37V23.9233H270.805L270.634 27.6307C270.592 28.5303 270.499 29.3163 270.357 29.9886C270.22 30.661 270.019 31.2221 269.754 31.6719C269.488 32.117 269.147 32.4508 268.731 32.6733C268.314 32.8911 267.808 33 267.211 33H266.529ZM283.985 33.2202C282.91 33.2202 281.984 32.9905 281.208 32.5312C280.436 32.0672 279.839 31.4162 279.418 30.5781C279.001 29.7353 278.793 28.7481 278.793 27.6165C278.793 26.4991 279.001 25.5142 279.418 24.6619C279.839 23.8097 280.426 23.1444 281.179 22.6662C281.937 22.188 282.822 21.9489 283.836 21.9489C284.451 21.9489 285.048 22.0507 285.625 22.2543C286.203 22.4579 286.721 22.7775 287.181 23.2131C287.64 23.6487 288.002 24.2145 288.267 24.9105C288.533 25.6018 288.665 26.4422 288.665 27.4318V28.1847H279.993V26.5938H286.584C286.584 26.035 286.471 25.5402 286.243 25.1094C286.016 24.6738 285.696 24.3305 285.284 24.0795C284.877 23.8286 284.399 23.7031 283.85 23.7031C283.253 23.7031 282.732 23.8499 282.287 24.1435C281.847 24.4323 281.506 24.8111 281.265 25.2798C281.028 25.7438 280.909 26.2481 280.909 26.7926V28.0355C280.909 28.7647 281.037 29.3849 281.293 29.8963C281.553 30.4077 281.916 30.7983 282.38 31.0682C282.844 31.3333 283.386 31.4659 284.006 31.4659C284.408 31.4659 284.775 31.4091 285.107 31.2955C285.438 31.1771 285.725 31.0019 285.966 30.7699C286.208 30.5379 286.392 30.2514 286.52 29.9105L288.53 30.2727C288.369 30.8646 288.08 31.383 287.664 31.8281C287.252 32.2685 286.733 32.6117 286.108 32.858C285.488 33.0994 284.78 33.2202 283.985 33.2202ZM290.059 23.9233V22.0909H299.263V23.9233H295.705V33H293.631V23.9233H290.059Z" fill="black"/>
<g clip-path="url(#clip0_274_921)">
<path d="M23.3776 36.7723C22.4721 37.0599 21.4874 37.0445 20.583 36.7154C19.6786 36.3861 18.9147 35.7651 18.4058 34.9629C17.4563 34.9233 16.5365 34.572 15.7993 33.9535C15.7062 33.8755 15.6167 33.7936 15.5312 33.7085L13.1796 38.6298C13.003 38.9992 13.0533 39.437 13.3087 39.757C13.5641 40.077 13.98 40.2228 14.3796 40.1322L19.0933 39.0632L21.2227 43.4022C21.4023 43.7681 21.7745 43.9999 22.1815 43.9999H22.1873C22.5968 43.9977 22.9689 43.7615 23.1453 43.3921L25.8789 37.6715C24.9682 37.641 24.0926 37.3233 23.3776 36.7723Z" fill="white"/>
<path d="M36.2466 33.9535C35.5095 34.572 34.5894 34.923 33.6401 34.9626C33.1312 35.7651 32.3671 36.3861 31.4627 36.7152C30.5585 37.0445 29.5738 37.0599 28.6683 36.7723C27.9534 37.3233 27.0778 37.641 26.167 37.6715L28.9004 43.3921C29.077 43.7615 29.4491 43.9974 29.8587 43.9996H29.8642C30.2715 43.9996 30.6434 43.7681 30.823 43.4022L32.9527 39.0632L37.6663 40.1319C38.0657 40.2228 38.4815 40.077 38.7369 39.757C38.9927 39.437 39.0426 38.9992 38.8663 38.6298L36.5144 33.7085C36.429 33.7936 36.3397 33.8752 36.2466 33.9535Z" fill="white"/>
<path d="M39.1501 21.1119C39.533 20.6216 39.6907 19.9896 39.583 19.3782C39.475 18.7668 39.1109 18.2269 38.5835 17.897C38.168 17.6372 37.9823 17.128 38.1339 16.6616C38.3259 16.07 38.258 15.4223 37.9474 14.8846C37.637 14.3468 37.11 13.9642 36.5016 13.8345C36.0223 13.7326 35.6738 13.3174 35.6565 12.8276C35.6345 12.2058 35.3492 11.6205 34.8737 11.2215C34.398 10.8221 33.7721 10.643 33.1557 10.7293C32.6707 10.7977 32.201 10.5263 32.0173 10.072C31.7841 9.49523 31.3158 9.0426 30.7322 8.83029C30.1488 8.61798 29.499 8.66357 28.9499 8.95553C28.5171 9.18542 27.9831 9.09121 27.6549 8.72702C27.2388 8.26504 26.6439 8 26.0229 8C25.4019 8 24.807 8.26504 24.3909 8.72702C24.0627 9.09121 23.5287 9.18542 23.0959 8.95553C22.5468 8.66357 21.897 8.61798 21.3136 8.83029C20.73 9.0426 20.2617 9.49523 20.0285 10.072C19.8448 10.5263 19.3754 10.7977 18.89 10.7293C18.274 10.643 17.6478 10.8221 17.1721 11.2215C16.6964 11.6205 16.4113 12.2058 16.3893 12.8276C16.372 13.3174 16.0237 13.7326 15.5442 13.8348C14.9358 13.9642 14.4087 14.3468 14.0984 14.8846C13.7877 15.4223 13.7199 16.07 13.9119 16.6616C14.0632 17.128 13.8778 17.6372 13.4623 17.8973C12.9349 18.2269 12.5707 18.7668 12.4628 19.3782C12.3551 19.9899 12.5128 20.6216 12.8957 21.1121C13.1972 21.4983 13.1972 22.0405 12.8957 22.4266C12.5128 22.9169 12.3551 23.5489 12.4628 24.1603C12.5707 24.7719 12.9349 25.3116 13.4623 25.6415C13.8778 25.9013 14.0635 26.4105 13.9122 26.8769C13.7199 27.4685 13.788 28.1162 14.0984 28.6539C14.409 29.1917 14.9358 29.5743 15.5442 29.704C16.0237 29.8058 16.372 30.2211 16.3893 30.7111C16.4113 31.3327 16.6966 31.9182 17.1723 32.3173C17.648 32.7164 18.2743 32.8957 18.89 32.8092C19.3754 32.7414 19.8448 33.0122 20.0285 33.4668C20.2617 34.0433 20.7303 34.4959 21.3136 34.7082C21.8973 34.9205 22.5468 34.8749 23.0961 34.5832C23.2544 34.4989 23.4266 34.4583 23.5968 34.4583C23.8921 34.4583 24.1827 34.5805 24.3909 34.8115C24.8073 35.2737 25.4022 35.5385 26.0229 35.5385C26.6439 35.5385 27.2388 35.2734 27.6552 34.8115C27.9831 34.4473 28.5171 34.3533 28.9499 34.5832C29.4992 34.8752 30.1488 34.9205 30.7324 34.7082C31.3158 34.4959 31.7841 34.0433 32.0173 33.4668C32.201 33.0122 32.6707 32.7411 33.156 32.8092C33.7718 32.8955 34.398 32.7164 34.8737 32.3173C35.3494 31.9182 35.6348 31.3327 35.6568 30.7111C35.6738 30.2211 36.0223 29.8061 36.5016 29.704C37.11 29.5743 37.637 29.1917 37.9477 28.6539C38.258 28.1162 38.3259 27.4685 38.1339 26.8769C37.9826 26.4108 38.168 25.9013 38.5835 25.6415C39.1111 25.3116 39.4753 24.7719 39.5833 24.1605C39.6909 23.5489 39.5333 22.9172 39.1504 22.4266C38.8486 22.0402 38.8486 21.4983 39.1501 21.1119ZM26.0229 31.1283C20.8624 31.1283 16.6637 26.9299 16.6637 21.7694C16.6637 16.6086 20.8624 12.4102 26.0229 12.4102C31.1834 12.4102 35.3818 16.6086 35.3818 21.7694C35.3818 26.9299 31.1834 31.1283 26.0229 31.1283Z" fill="white"/>
<path d="M26.0227 14.5464C22.0399 14.5464 18.7998 17.7865 18.7998 21.7693C18.7998 25.7518 22.0399 28.992 26.0227 28.992C30.0055 28.992 33.2454 25.7518 33.2454 21.7693C33.2454 17.7865 30.0053 14.5464 26.0227 14.5464ZM21.5112 20.4444C21.9284 20.0272 22.6046 20.0272 23.0218 20.4444L25.1504 22.573L29.0236 18.6998C29.4408 18.2825 30.117 18.2825 30.5343 18.6998C30.9515 19.1167 30.9515 19.7932 30.5343 20.2101L25.9057 24.8389C25.7055 25.0391 25.4336 25.1517 25.1504 25.1517C24.8673 25.1517 24.5956 25.0391 24.3951 24.8389L21.5115 21.955C21.094 21.5378 21.094 20.8616 21.5112 20.4444Z" fill="white"/>
</g>
<defs>
<clipPath id="clip0_274_921">
<rect width="36" height="36" fill="white" transform="translate(8 8)"/>
</clipPath>
</defs>
</svg>
