<svg width="674" height="52" viewBox="0 0 674 52" fill="none" xmlns="http://www.w3.org/2000/svg">
<circle cx="26" cy="26" r="26" fill="#F50E30"/>
<path d="M91.233 25.7273C91.233 27.2803 90.9489 28.6155 90.3807 29.733C89.8125 30.8456 89.0336 31.7027 88.044 32.304C87.0592 32.9006 85.9394 33.1989 84.6847 33.1989C83.4252 33.1989 82.3007 32.9006 81.3111 32.304C80.3262 31.7027 79.5497 30.8433 78.9815 29.7259C78.4134 28.6084 78.1293 27.2756 78.1293 25.7273C78.1293 24.1742 78.4134 22.8414 78.9815 21.7287C79.5497 20.6113 80.3262 19.7543 81.3111 19.1577C82.3007 18.5563 83.4252 18.2557 84.6847 18.2557C85.9394 18.2557 87.0592 18.5563 88.044 19.1577C89.0336 19.7543 89.8125 20.6113 90.3807 21.7287C90.9489 22.8414 91.233 24.1742 91.233 25.7273ZM89.0597 25.7273C89.0597 24.5436 88.8679 23.5469 88.4844 22.7372C88.1056 21.9228 87.5848 21.3073 86.9219 20.8906C86.2637 20.4692 85.518 20.2585 84.6847 20.2585C83.8466 20.2585 83.0985 20.4692 82.4403 20.8906C81.7822 21.3073 81.2614 21.9228 80.8778 22.7372C80.4991 23.5469 80.3097 24.5436 80.3097 25.7273C80.3097 26.911 80.4991 27.91 80.8778 28.7244C81.2614 29.5341 81.7822 30.1496 82.4403 30.571C83.0985 30.9877 83.8466 31.196 84.6847 31.196C85.518 31.196 86.2637 30.9877 86.9219 30.571C87.5848 30.1496 88.1056 29.5341 88.4844 28.7244C88.8679 27.91 89.0597 26.911 89.0597 25.7273ZM93.1879 23.9233V22.0909H102.392V23.9233H98.8342V33H96.7603V23.9233H93.1879ZM102.881 33L102.874 31.1605H103.264C103.567 31.1605 103.821 31.0966 104.024 30.9688C104.232 30.8362 104.403 30.6136 104.536 30.3011C104.668 29.9886 104.77 29.5578 104.841 29.0085C104.912 28.4545 104.964 27.7585 104.997 26.9205L105.189 22.0909H112.803V33H110.722V23.9233H107.156L106.986 27.6307C106.943 28.5303 106.851 29.3163 106.709 29.9886C106.571 30.661 106.37 31.2221 106.105 31.6719C105.84 32.117 105.499 32.4508 105.082 32.6733C104.666 32.8911 104.159 33 103.562 33H102.881ZM118.809 33.2415C118.118 33.2415 117.493 33.1136 116.934 32.858C116.376 32.5975 115.933 32.2211 115.606 31.7287C115.284 31.2363 115.123 30.6326 115.123 29.9176C115.123 29.3021 115.242 28.7955 115.478 28.3977C115.715 28 116.035 27.6851 116.437 27.4531C116.84 27.2211 117.289 27.0459 117.787 26.9276C118.284 26.8092 118.79 26.7192 119.306 26.6577C119.96 26.5819 120.49 26.5204 120.897 26.473C121.305 26.4209 121.6 26.3381 121.785 26.2244C121.97 26.1108 122.062 25.9261 122.062 25.6705V25.6207C122.062 25.0005 121.887 24.5199 121.537 24.179C121.191 23.8381 120.675 23.6676 119.988 23.6676C119.273 23.6676 118.71 23.8262 118.298 24.1435C117.891 24.456 117.609 24.804 117.453 25.1875L115.457 24.733C115.694 24.0701 116.039 23.535 116.494 23.1278C116.953 22.7159 117.481 22.4176 118.078 22.233C118.674 22.0436 119.302 21.9489 119.96 21.9489C120.395 21.9489 120.857 22.0009 121.345 22.1051C121.837 22.2045 122.297 22.3892 122.723 22.6591C123.154 22.929 123.506 23.3149 123.781 23.8168C124.056 24.3139 124.193 24.9602 124.193 25.7557V33H122.119V31.5085H122.034C121.896 31.7831 121.69 32.053 121.416 32.3182C121.141 32.5833 120.788 32.8035 120.358 32.9787C119.927 33.1539 119.411 33.2415 118.809 33.2415ZM119.271 31.5369C119.858 31.5369 120.36 31.4209 120.777 31.1889C121.198 30.9569 121.518 30.6539 121.735 30.2798C121.958 29.901 122.069 29.4962 122.069 29.0653V27.6591C121.993 27.7348 121.847 27.8059 121.629 27.8722C121.416 27.9337 121.172 27.9882 120.897 28.0355C120.623 28.0781 120.355 28.1184 120.095 28.1562C119.834 28.1894 119.617 28.2178 119.441 28.2415C119.029 28.2936 118.653 28.3812 118.312 28.5043C117.976 28.6274 117.706 28.8049 117.502 29.0369C117.304 29.2642 117.204 29.5672 117.204 29.946C117.204 30.4716 117.398 30.8693 117.787 31.1392C118.175 31.4044 118.67 31.5369 119.271 31.5369ZM126.325 33L130.551 27.4176L126.375 22.0909H128.847L132.22 26.6222H132.98V22.0909H135.104V26.6222H135.842L139.216 22.0909H141.688L137.533 27.4176L141.737 33H139.216L135.814 28.4545H135.104V33H132.98V28.4545H132.27L128.847 33H126.325ZM148.168 33.2202C147.094 33.2202 146.168 32.9905 145.391 32.5312C144.62 32.0672 144.023 31.4162 143.602 30.5781C143.185 29.7353 142.977 28.7481 142.977 27.6165C142.977 26.4991 143.185 25.5142 143.602 24.6619C144.023 23.8097 144.61 23.1444 145.363 22.6662C146.121 22.188 147.006 21.9489 148.019 21.9489C148.635 21.9489 149.231 22.0507 149.809 22.2543C150.387 22.4579 150.905 22.7775 151.364 23.2131C151.824 23.6487 152.186 24.2145 152.451 24.9105C152.716 25.6018 152.849 26.4422 152.849 27.4318V28.1847H144.177V26.5938H150.768C150.768 26.035 150.654 25.5402 150.427 25.1094C150.2 24.6738 149.88 24.3305 149.468 24.0795C149.061 23.8286 148.583 23.7031 148.033 23.7031C147.437 23.7031 146.916 23.8499 146.471 24.1435C146.031 24.4323 145.69 24.8111 145.448 25.2798C145.211 25.7438 145.093 26.2481 145.093 26.7926V28.0355C145.093 28.7647 145.221 29.3849 145.477 29.8963C145.737 30.4077 146.099 30.7983 146.563 31.0682C147.027 31.3333 147.569 31.4659 148.19 31.4659C148.592 31.4659 148.959 31.4091 149.29 31.2955C149.622 31.1771 149.908 31.0019 150.15 30.7699C150.391 30.5379 150.576 30.2514 150.704 29.9105L152.714 30.2727C152.553 30.8646 152.264 31.383 151.847 31.8281C151.435 32.2685 150.917 32.6117 150.292 32.858C149.672 33.0994 148.964 33.2202 148.168 33.2202ZM162.598 26.6293V28.4688H156.689V26.6293H162.598ZM157.286 22.0909V33H155.205V22.0909H157.286ZM164.083 22.0909V33H162.009V22.0909H164.083ZM174.317 26.6293V28.4688H168.408V26.6293H174.317ZM169.005 22.0909V33H166.924V22.0909H169.005ZM175.801 22.0909V33H173.728V22.0909H175.801ZM181.817 33.2415C181.126 33.2415 180.501 33.1136 179.942 32.858C179.383 32.5975 178.941 32.2211 178.614 31.7287C178.292 31.2363 178.131 30.6326 178.131 29.9176C178.131 29.3021 178.249 28.7955 178.486 28.3977C178.723 28 179.042 27.6851 179.445 27.4531C179.847 27.2211 180.297 27.0459 180.794 26.9276C181.292 26.8092 181.798 26.7192 182.314 26.6577C182.968 26.5819 183.498 26.5204 183.905 26.473C184.312 26.4209 184.608 26.3381 184.793 26.2244C184.978 26.1108 185.07 25.9261 185.07 25.6705V25.6207C185.07 25.0005 184.895 24.5199 184.544 24.179C184.199 23.8381 183.683 23.6676 182.996 23.6676C182.281 23.6676 181.718 23.8262 181.306 24.1435C180.899 24.456 180.617 24.804 180.461 25.1875L178.465 24.733C178.702 24.0701 179.047 23.535 179.502 23.1278C179.961 22.7159 180.489 22.4176 181.086 22.233C181.682 22.0436 182.31 21.9489 182.968 21.9489C183.403 21.9489 183.865 22.0009 184.353 22.1051C184.845 22.2045 185.304 22.3892 185.73 22.6591C186.161 22.929 186.514 23.3149 186.789 23.8168C187.063 24.3139 187.201 24.9602 187.201 25.7557V33H185.127V31.5085H185.042C184.904 31.7831 184.698 32.053 184.424 32.3182C184.149 32.5833 183.796 32.8035 183.365 32.9787C182.935 33.1539 182.418 33.2415 181.817 33.2415ZM182.279 31.5369C182.866 31.5369 183.368 31.4209 183.784 31.1889C184.206 30.9569 184.525 30.6539 184.743 30.2798C184.966 29.901 185.077 29.4962 185.077 29.0653V27.6591C185.001 27.7348 184.855 27.8059 184.637 27.8722C184.424 27.9337 184.18 27.9882 183.905 28.0355C183.631 28.0781 183.363 28.1184 183.103 28.1562C182.842 28.1894 182.624 28.2178 182.449 28.2415C182.037 28.2936 181.661 28.3812 181.32 28.5043C180.984 28.6274 180.714 28.8049 180.51 29.0369C180.311 29.2642 180.212 29.5672 180.212 29.946C180.212 30.4716 180.406 30.8693 180.794 31.1392C181.183 31.4044 181.677 31.5369 182.279 31.5369ZM196.535 33V23.902H193.921C193.301 23.902 192.818 24.0464 192.472 24.3352C192.127 24.6241 191.954 25.0028 191.954 25.4716C191.954 25.9356 192.112 26.3097 192.43 26.5938C192.752 26.8731 193.201 27.0128 193.779 27.0128H197.153V28.7315H193.779C192.974 28.7315 192.278 28.599 191.691 28.3338C191.109 28.0639 190.659 27.6828 190.342 27.1903C190.029 26.6979 189.873 26.1155 189.873 25.4432C189.873 24.7566 190.034 24.1648 190.356 23.6676C190.683 23.1657 191.149 22.7775 191.755 22.5028C192.366 22.2282 193.088 22.0909 193.921 22.0909H198.531V33H196.535ZM189.376 33L192.451 27.4886H194.624L191.549 33H189.376ZM205.791 33L205.784 31.1605H206.174C206.477 31.1605 206.731 31.0966 206.934 30.9688C207.143 30.8362 207.313 30.6136 207.446 30.3011C207.578 29.9886 207.68 29.5578 207.751 29.0085C207.822 28.4545 207.874 27.7585 207.907 26.9205L208.099 22.0909H215.713V33H213.632V23.9233H210.066L209.896 27.6307C209.853 28.5303 209.761 29.3163 209.619 29.9886C209.482 30.661 209.28 31.2221 209.015 31.6719C208.75 32.117 208.409 32.4508 207.993 32.6733C207.576 32.8911 207.069 33 206.473 33H205.791ZM223.14 33.2202C222.117 33.2202 221.225 32.9858 220.462 32.517C219.7 32.0483 219.108 31.3925 218.687 30.5497C218.265 29.7069 218.055 28.7221 218.055 27.5952C218.055 26.4635 218.265 25.474 218.687 24.6264C219.108 23.7789 219.7 23.1207 220.462 22.652C221.225 22.1832 222.117 21.9489 223.14 21.9489C224.163 21.9489 225.055 22.1832 225.817 22.652C226.58 23.1207 227.172 23.7789 227.593 24.6264C228.014 25.474 228.225 26.4635 228.225 27.5952C228.225 28.7221 228.014 29.7069 227.593 30.5497C227.172 31.3925 226.58 32.0483 225.817 32.517C225.055 32.9858 224.163 33.2202 223.14 33.2202ZM223.147 31.4375C223.81 31.4375 224.359 31.2623 224.795 30.9119C225.23 30.5616 225.552 30.0952 225.761 29.5128C225.974 28.9304 226.08 28.2888 226.08 27.5881C226.08 26.892 225.974 26.2528 225.761 25.6705C225.552 25.0833 225.23 24.6122 224.795 24.2571C224.359 23.902 223.81 23.7244 223.147 23.7244C222.479 23.7244 221.925 23.902 221.485 24.2571C221.049 24.6122 220.725 25.0833 220.512 25.6705C220.304 26.2528 220.2 26.892 220.2 27.5881C220.2 28.2888 220.304 28.9304 220.512 29.5128C220.725 30.0952 221.049 30.5616 221.485 30.9119C221.925 31.2623 222.479 31.4375 223.147 31.4375ZM237.57 22.0909V23.9233H232.691V33H230.596V22.0909H237.57ZM241.895 30.0241L246.703 22.0909H248.99V33H246.909V25.0597L242.123 33H239.814V22.0909H241.895V30.0241ZM256.441 33.2202C255.385 33.2202 254.476 32.9811 253.713 32.5028C252.956 32.0199 252.373 31.3546 251.966 30.5071C251.559 29.6596 251.355 28.6889 251.355 27.5952C251.355 26.4872 251.564 25.5095 251.98 24.6619C252.397 23.8097 252.984 23.1444 253.742 22.6662C254.499 22.188 255.392 21.9489 256.419 21.9489C257.248 21.9489 257.987 22.1027 258.635 22.4105C259.284 22.7135 259.807 23.1397 260.205 23.6889C260.607 24.2382 260.846 24.8797 260.922 25.6136H258.855C258.742 25.1023 258.481 24.6619 258.074 24.2926C257.672 23.9233 257.132 23.7386 256.455 23.7386C255.863 23.7386 255.345 23.8949 254.9 24.2074C254.459 24.5152 254.116 24.9555 253.87 25.5284C253.623 26.0966 253.5 26.7689 253.5 27.5455C253.5 28.3409 253.621 29.0275 253.863 29.6051C254.104 30.1828 254.445 30.6302 254.885 30.9474C255.33 31.2647 255.854 31.4233 256.455 31.4233C256.857 31.4233 257.222 31.3499 257.549 31.2031C257.88 31.0516 258.157 30.8362 258.38 30.5568C258.607 30.2775 258.766 29.9413 258.855 29.5483H260.922C260.846 30.2538 260.617 30.8835 260.233 31.4375C259.85 31.9915 259.336 32.4271 258.692 32.7443C258.053 33.0616 257.302 33.2202 256.441 33.2202ZM262.368 23.9233V22.0909H271.572V23.9233H268.014V33H265.94V23.9233H262.368ZM275.899 30.0241L280.707 22.0909H282.994V33H280.913V25.0597L276.126 33H273.818V22.0909H275.899V30.0241ZM285.849 33V22.0909H287.973V26.6648H288.996L292.597 22.0909H295.224L290.999 27.3963L295.274 33H292.639L289.351 28.6392H287.973V33H285.849ZM300.098 33.2415C299.407 33.2415 298.782 33.1136 298.223 32.858C297.665 32.5975 297.222 32.2211 296.895 31.7287C296.573 31.2363 296.412 30.6326 296.412 29.9176C296.412 29.3021 296.531 28.7955 296.767 28.3977C297.004 28 297.324 27.6851 297.726 27.4531C298.129 27.2211 298.578 27.0459 299.076 26.9276C299.573 26.8092 300.079 26.7192 300.596 26.6577C301.249 26.5819 301.779 26.5204 302.186 26.473C302.594 26.4209 302.89 26.3381 303.074 26.2244C303.259 26.1108 303.351 25.9261 303.351 25.6705V25.6207C303.351 25.0005 303.176 24.5199 302.826 24.179C302.48 23.8381 301.964 23.6676 301.277 23.6676C300.562 23.6676 299.999 23.8262 299.587 24.1435C299.18 24.456 298.898 24.804 298.742 25.1875L296.746 24.733C296.983 24.0701 297.328 23.535 297.783 23.1278C298.242 22.7159 298.77 22.4176 299.367 22.233C299.963 22.0436 300.591 21.9489 301.249 21.9489C301.685 21.9489 302.146 22.0009 302.634 22.1051C303.126 22.2045 303.586 22.3892 304.012 22.6591C304.443 22.929 304.795 23.3149 305.07 23.8168C305.345 24.3139 305.482 24.9602 305.482 25.7557V33H303.408V31.5085H303.323C303.185 31.7831 302.98 32.053 302.705 32.3182C302.43 32.5833 302.078 32.8035 301.647 32.9787C301.216 33.1539 300.7 33.2415 300.098 33.2415ZM300.56 31.5369C301.147 31.5369 301.649 31.4209 302.066 31.1889C302.487 30.9569 302.807 30.6539 303.025 30.2798C303.247 29.901 303.358 29.4962 303.358 29.0653V27.6591C303.283 27.7348 303.136 27.8059 302.918 27.8722C302.705 27.9337 302.461 27.9882 302.186 28.0355C301.912 28.0781 301.644 28.1184 301.384 28.1562C301.123 28.1894 300.906 28.2178 300.73 28.2415C300.319 28.2936 299.942 28.3812 299.601 28.5043C299.265 28.6274 298.995 28.8049 298.792 29.0369C298.593 29.2642 298.493 29.5672 298.493 29.946C298.493 30.4716 298.687 30.8693 299.076 31.1392C299.464 31.4044 299.959 31.5369 300.56 31.5369Z" fill="black"/>
<g clip-path="url(#clip0_274_931)">
<g clip-path="url(#clip1_274_931)">
<path d="M18.7148 15.1377L19.6894 16.1088V12.6992H16.7402V16.1088L17.7148 15.1377C17.8529 15.0003 18.0342 14.9309 18.2148 14.9309C18.3954 14.9309 18.5768 15.0003 18.7148 15.1377Z" fill="white"/>
<path d="M26.0498 13.407C26.0498 13.0167 25.7381 12.6987 25.3415 12.6987H21.1061V17.8124C21.1061 18.1027 20.9361 18.357 20.667 18.4703C20.582 18.5057 20.4899 18.5206 20.3979 18.5206C20.2137 18.5206 20.0366 18.4491 19.895 18.3152L18.2164 16.6367L16.5308 18.3152C16.3324 18.5206 16.0279 18.5773 15.7588 18.4703C15.4967 18.357 15.3267 18.1027 15.3267 17.8124V12.6987H11.0843C10.6947 12.6987 10.376 13.0167 10.376 13.407V21.3317H16.2687L15.9429 21.0059C15.6667 20.7304 15.6667 20.2842 15.9429 20.0073C16.2191 19.7318 16.6653 19.7318 16.9416 20.0073L18.4785 21.5371C18.5422 21.6008 18.5918 21.6795 18.6343 21.7716C18.7051 21.9415 18.7051 22.1398 18.6343 22.3091C18.5918 22.3941 18.5422 22.4727 18.4785 22.5428L16.9416 24.0734C16.807 24.215 16.6228 24.2787 16.4458 24.2787C16.2616 24.2787 16.0775 24.215 15.9429 24.0734C15.6667 23.7971 15.6667 23.351 15.9429 23.074L16.2687 22.7482H10.376V27.4234H26.0498V13.407Z" fill="white"/>
<path d="M40.7178 28.8398H9.7102C9.32067 28.8398 9.00195 29.1578 9.00195 29.5481V35.1851C9.00195 35.5747 9.32067 35.8934 9.7102 35.8934H11.9979C11.9979 33.2303 14.1581 31.0701 16.8211 31.0701C19.4771 31.0701 21.6444 33.2303 21.6444 35.8934H30.363C30.363 33.2303 32.5233 31.0701 35.1863 31.0701C37.8423 31.0701 40.0096 33.2303 40.0096 35.8934H42.2902C42.6868 35.8934 42.9984 35.5747 42.9984 35.1851V31.1268C42.9984 29.8661 41.9785 28.8398 40.7178 28.8398Z" fill="white"/>
<path d="M41.2423 20.8996C41.2423 20.7437 41.1927 20.595 41.1006 20.4675L37.6656 15.9771C37.531 15.8001 37.3256 15.6938 37.106 15.6938H28.012C27.6224 15.6938 27.3037 16.0126 27.3037 16.4021V27.4226H41.2423V20.8996ZM38.0905 22.8544C38.0905 23.2439 37.7718 23.5626 37.3822 23.5626H31.1637C30.7742 23.5626 30.4555 23.2439 30.4555 22.8544V18.8527C30.4555 18.4561 30.7742 18.1444 31.1637 18.1444H35.5408C35.7674 18.1444 35.9728 18.2436 36.1074 18.4207L37.9418 20.8287C38.0409 20.9492 38.0905 21.105 38.0905 21.2607V22.8544Z" fill="white"/>
<path d="M35.1857 32.4854C33.3039 32.4854 31.7783 34.0109 31.7783 35.8935C31.7783 37.7754 33.3039 39.3016 35.1857 39.3016C37.0683 39.3016 38.5939 37.7754 38.5939 35.8935C38.5939 34.0109 37.0683 32.4854 35.1857 32.4854Z" fill="white"/>
<path d="M17.6084 39.1993C19.4398 38.7664 20.5735 36.9308 20.1406 35.0994C19.7077 33.268 17.8721 32.1343 16.0407 32.5672C14.2093 33.0001 13.0756 34.8357 13.5085 36.6671C13.9414 38.4985 15.777 39.6322 17.6084 39.1993Z" fill="white"/>
</g>
</g>
<defs>
<clipPath id="clip0_274_931">
<rect width="36" height="36" fill="white" transform="translate(8 8)"/>
</clipPath>
<clipPath id="clip1_274_931">
<rect width="36" height="36" fill="white" transform="translate(8 8)"/>
</clipPath>
</defs>
</svg>
